<svg width="96" height="48" viewBox="0 0 96 48" fill="none" xmlns="http://www.w3.org/2000/svg">
<mask id="mask0_19_218" style="mask-type:alpha" maskUnits="userSpaceOnUse" x="0" y="10" width="28" height="28">
<rect y="10" width="28" height="28" fill="#D9D9D9"/>
</mask>
<g mask="url(#mask0_19_218)">
<path d="M2.60254 24.5833V23.4167H8.4359V24.5833H2.60254ZM9.625 20.4506L7.53395 18.3596L8.3596 17.534L10.4506 19.625L9.625 20.4506ZM13.4167 18.4359V12.6025H14.5833V18.4359H13.4167ZM18.375 20.4506L17.5493 19.625L19.6404 17.534L20.466 18.3596L18.375 20.4506ZM19.5641 24.5833V23.4167H25.3975V24.5833H19.5641ZM14 26.3333C13.3419 26.3333 12.7885 26.109 12.3397 25.6603C11.891 25.2115 11.6667 24.6581 11.6667 24C11.6667 23.3419 11.891 22.7885 12.3397 22.3397C12.7885 21.891 13.3419 21.6667 14 21.6667C14.6581 21.6667 15.2115 21.891 15.6603 22.3397C16.109 22.7885 16.3333 23.3419 16.3333 24C16.3333 24.6581 16.109 25.2115 15.6603 25.6603C15.2115 26.109 14.6581 26.3333 14 26.3333ZM19.6404 30.466L17.5493 28.375L18.375 27.5493L20.466 29.6404L19.6404 30.466ZM8.3596 30.466L7.53395 29.6404L9.625 27.5493L10.4506 28.375L8.3596 30.466ZM13.4167 35.3975V29.5641H14.5833V35.3974L13.4167 35.3975Z" fill="white"/>
</g>
<path d="M34.2372 34V13.6364H41.6946C43.1397 13.6364 44.3362 13.875 45.2841 14.3523C46.232 14.8229 46.9413 15.4626 47.4119 16.2713C47.8826 17.0734 48.1179 17.9782 48.1179 18.9858C48.1179 19.8343 47.9621 20.5502 47.6506 21.1335C47.339 21.7102 46.9214 22.1742 46.3977 22.5256C45.8807 22.8703 45.3106 23.1222 44.6875 23.2812V23.4801C45.3636 23.5133 46.0232 23.732 46.6662 24.1364C47.3158 24.5341 47.8527 25.1009 48.277 25.8366C48.7012 26.5724 48.9134 27.4673 48.9134 28.5213C48.9134 29.562 48.6681 30.4967 48.1776 31.3253C47.6937 32.1473 46.9446 32.8002 45.9304 33.2841C44.9162 33.7614 43.6203 34 42.0426 34H34.2372ZM37.3097 31.3651H41.7443C43.2159 31.3651 44.2699 31.08 44.9062 30.5099C45.5426 29.9399 45.8608 29.2273 45.8608 28.3722C45.8608 27.7292 45.6984 27.1392 45.3736 26.6023C45.0488 26.0653 44.5848 25.6378 43.9815 25.3196C43.3849 25.0014 42.6757 24.8423 41.8537 24.8423H37.3097V31.3651ZM37.3097 22.446H41.4261C42.1155 22.446 42.7353 22.3134 43.2855 22.0483C43.8423 21.7831 44.2831 21.4119 44.608 20.9347C44.9394 20.4508 45.1051 19.8807 45.1051 19.2244C45.1051 18.3826 44.8101 17.6766 44.2202 17.1065C43.6302 16.5365 42.7254 16.2514 41.5057 16.2514H37.3097V22.446ZM51.7589 34V18.7273H54.6325V21.1534H54.7916C55.07 20.3314 55.5605 19.6851 56.2632 19.2145C56.9724 18.7372 57.7745 18.4986 58.6694 18.4986C58.855 18.4986 59.0738 18.5052 59.3257 18.5185C59.5842 18.5317 59.7864 18.5483 59.9322 18.5682V21.4119C59.8129 21.3788 59.6007 21.3423 59.2958 21.3026C58.9909 21.2562 58.686 21.233 58.3811 21.233C57.6784 21.233 57.052 21.3821 56.5018 21.6804C55.9582 21.9721 55.5274 22.3797 55.2092 22.9034C54.891 23.4205 54.7319 24.0104 54.7319 24.6733V34H51.7589ZM61.945 34V18.7273H64.918V34H61.945ZM63.4464 16.3707C62.9294 16.3707 62.4852 16.1984 62.114 15.8537C61.7494 15.5024 61.5671 15.0848 61.5671 14.6009C61.5671 14.1103 61.7494 13.6927 62.114 13.348C62.4852 12.9967 62.9294 12.821 63.4464 12.821C63.9635 12.821 64.4043 12.9967 64.7688 13.348C65.1401 13.6927 65.3257 14.1103 65.3257 14.6009C65.3257 15.0848 65.1401 15.5024 64.7688 15.8537C64.4043 16.1984 63.9635 16.3707 63.4464 16.3707ZM71.3307 13.6364V34H68.3576V13.6364H71.3307ZM77.7433 13.6364V34H74.7703V13.6364H77.7433ZM85.6276 34.3381C84.6598 34.3381 83.7848 34.1591 83.0026 33.8011C82.2204 33.4366 81.6006 32.9096 81.1432 32.2202C80.6924 31.5308 80.467 30.6856 80.467 29.6847C80.467 28.8229 80.6328 28.1136 80.9642 27.5568C81.2956 27 81.7431 26.5592 82.3065 26.2344C82.87 25.9096 83.4997 25.6643 84.1957 25.4986C84.8918 25.3329 85.601 25.2069 86.3236 25.1207C87.2384 25.0147 87.9808 24.9285 88.5509 24.8622C89.1209 24.7893 89.5352 24.6733 89.7938 24.5142C90.0523 24.3551 90.1815 24.0966 90.1815 23.7386V23.669C90.1815 22.8007 89.9363 22.1278 89.4457 21.6506C88.9618 21.1733 88.2393 20.9347 87.2781 20.9347C86.2772 20.9347 85.4884 21.1567 84.9116 21.6009C84.3416 22.0384 83.9472 22.5256 83.7284 23.0625L80.9344 22.4261C81.2658 21.4981 81.7497 20.7491 82.3861 20.179C83.0291 19.6023 83.7682 19.1847 84.6034 18.9261C85.4386 18.661 86.317 18.5284 87.2384 18.5284C87.8482 18.5284 88.4945 18.6013 89.1773 18.7472C89.8667 18.8864 90.5097 19.1449 91.1063 19.5227C91.7095 19.9006 92.2033 20.4408 92.5878 21.1435C92.9723 21.8395 93.1645 22.7443 93.1645 23.858V34H90.2611V31.9119H90.1418C89.9495 32.2964 89.6612 32.6742 89.2767 33.0455C88.8922 33.4167 88.3984 33.7249 87.7952 33.9702C87.192 34.2154 86.4694 34.3381 85.6276 34.3381ZM86.2739 31.9517C87.0958 31.9517 87.7985 31.7893 88.3818 31.4645C88.9718 31.1397 89.4192 30.7154 89.7241 30.1918C90.0357 29.6615 90.1915 29.0947 90.1915 28.4915V26.5227C90.0854 26.6288 89.8799 26.7282 89.575 26.821C89.2767 26.9072 88.9353 26.9834 88.5509 27.0497C88.1664 27.1094 87.7919 27.1657 87.4273 27.2188C87.0627 27.2652 86.7578 27.3049 86.5125 27.3381C85.9358 27.411 85.4088 27.5336 84.9315 27.706C84.4609 27.8783 84.0831 28.1269 83.798 28.4517C83.5196 28.7699 83.3804 29.1941 83.3804 29.7244C83.3804 30.4602 83.6522 31.017 84.1957 31.3949C84.7393 31.7661 85.432 31.9517 86.2739 31.9517Z" fill="white"/>
</svg>
